<?xml version="1.0" encoding="UTF-8" standalone="no"?>
<!-- Created with Inkscape (http://www.inkscape.org/) -->

<svg
   width="271.20343mm"
   height="108.44511mm"
   viewBox="0 0 271.20342 108.44511"
   version="1.1"
   id="svg1"
   xml:space="preserve"
   inkscape:version="1.3.2 (091e20e, 2023-11-25)"
   sodipodi:docname="TDS_basics.svg"
   xmlns:inkscape="http://www.inkscape.org/namespaces/inkscape"
   xmlns:sodipodi="http://sodipodi.sourceforge.net/DTD/sodipodi-0.dtd"
   xmlns:xlink="http://www.w3.org/1999/xlink"
   xmlns="http://www.w3.org/2000/svg"
   xmlns:svg="http://www.w3.org/2000/svg"><sodipodi:namedview
     id="namedview1"
     pagecolor="#ffffff"
     bordercolor="#000000"
     borderopacity="0.25"
     inkscape:showpageshadow="2"
     inkscape:pageopacity="0.0"
     inkscape:pagecheckerboard="0"
     inkscape:deskcolor="#d1d1d1"
     inkscape:document-units="mm"
     inkscape:zoom="0.3846363"
     inkscape:cx="690.26246"
     inkscape:cy="213.18841"
     inkscape:window-width="1472"
     inkscape:window-height="919"
     inkscape:window-x="0"
     inkscape:window-y="37"
     inkscape:window-maximized="0"
     inkscape:current-layer="layer1"><inkscape:page
       x="0"
       y="0"
       width="271.2034"
       height="108.44511"
       id="page1"
       margin="0"
       bleed="0"
       inkscape:export-filename="TDS_basics.pdf"
       inkscape:export-xdpi="96"
       inkscape:export-ydpi="96" /><inkscape:page
       x="217.25752"
       y="-54.240814"
       width="234.24443"
       height="144.28612"
       id="page2"
       margin="0"
       bleed="0" /></sodipodi:namedview><defs
     id="defs1"><marker
       style="overflow:visible"
       id="marker7"
       refX="0"
       refY="0"
       orient="auto-start-reverse"
       inkscape:stockid="Wide arrow"
       markerWidth="1"
       markerHeight="1"
       viewBox="0 0 1 1"
       inkscape:isstock="true"
       inkscape:collect="always"
       preserveAspectRatio="xMidYMid"><path
         style="fill:none;stroke:context-stroke;stroke-width:1;stroke-linecap:butt"
         d="M 3,-3 0,0 3,3"
         transform="rotate(180,0.125,0)"
         sodipodi:nodetypes="ccc"
         id="path7" /></marker><inkscape:path-effect
       effect="bspline"
       id="path-effect6"
       is_visible="true"
       lpeversion="1.3"
       weight="33.333333"
       steps="2"
       helper_size="0"
       apply_no_weight="true"
       apply_with_weight="true"
       only_selected="false"
       uniform="false" /><marker
       style="overflow:visible"
       id="ArrowWide"
       refX="0"
       refY="0"
       orient="auto-start-reverse"
       inkscape:stockid="Wide arrow"
       markerWidth="1"
       markerHeight="1"
       viewBox="0 0 1 1"
       inkscape:isstock="true"
       inkscape:collect="always"
       preserveAspectRatio="xMidYMid"><path
         style="fill:none;stroke:context-stroke;stroke-width:1;stroke-linecap:butt"
         d="M 3,-3 0,0 3,3"
         transform="rotate(180,0.125,0)"
         sodipodi:nodetypes="ccc"
         id="path1" /></marker><inkscape:path-effect
       effect="bspline"
       id="path-effect5"
       is_visible="true"
       lpeversion="1.3"
       weight="33.333333"
       steps="2"
       helper_size="0"
       apply_no_weight="true"
       apply_with_weight="true"
       only_selected="false"
       uniform="false" /><pattern
       inkscape:collect="always"
       xlink:href="#stripes-grid"
       preserveAspectRatio="xMidYMid"
       id="pattern5"
       patternTransform="scale(8)"
       x="0"
       y="0"
       width="9" /><pattern
       patternUnits="userSpaceOnUse"
       width="3"
       height="10"
       patternTransform="scale(2)"
       preserveAspectRatio="xMidYMid"
       id="stripes-grid"
       style="fill:#b90f22"
       x="0"
       y="0"
       inkscape:label="Breite Streifen"
       inkscape:collect="always"
       inkscape:isstock="true"><rect
         style="stroke:none"
         x="0"
         y="0"
         width="2"
         height="10"
         id="rect134-4" /></pattern><clipPath
       clipPathUnits="userSpaceOnUse"
       id="clipPath3"><rect
         style="fill:none;stroke-width:15.1181;stroke-miterlimit:3.8;stroke-dasharray:none;paint-order:stroke fill markers"
         id="rect4"
         width="923.0556"
         height="824.1568"
         x="-1318.2275"
         y="113.37492" /></clipPath></defs><g
     inkscape:label="Ebene 1"
     inkscape:groupmode="layer"
     id="layer1"
     transform="translate(-2.7424756,-54.240809)"><g
       id="g1"
       inkscape:groupmode="layer"
       inkscape:label="1"
       transform="matrix(0.26458333,0,0,0.26458333,220.00001,1.2916667e-6)"><path
         id="path45"
         d="m -5483.0948,553.78727 6.2632,0.21429 7.6202,1.82314 7.6199,-1.17952 7.6202,-0.50396 7.6201,-0.0327 7.6205,1.21715 7.6201,-1.36544 7.6199,0.58445 7.6202,0.86802 7.6237,-1.20406 7.6202,0.33496 7.6201,-0.10412 7.62,-0.72793 7.6204,0.21401 7.6201,0.15037 7.6202,0.0895 7.6199,1.44824 7.6202,-2.54169 7.6201,1.3403 7.6202,-0.78555 7.6204,-0.0371 7.6199,0.15228 7.6202,-0.006 7.6202,0.54679 7.6204,-1.2737 7.6202,2.54529 7.6199,-1.18022 7.6201,-0.71533 7.6202,0.31262 7.6202,-0.94289 7.6199,1.28335 7.6239,-1.13912 7.6202,1.7585 7.6199,0.0921 7.6204,-1.29871 7.6199,0.98201 7.6202,0.0987 7.6202,-0.14444 7.6204,-0.61138 7.6199,0.82865 7.6202,-0.90503 7.6201,0.0332 7.6204,-0.026 7.62,0.0562 7.6201,0.47232 7.6202,-0.40672 7.6201,0.29526 7.6202,0.82296 7.6202,-2.67183 7.6199,1.67944 7.6204,-0.14266 7.6202,-0.45099 7.6201,0.12144 7.6235,-0.0167 7.6202,-0.69464 7.6201,0.73728 7.6204,-0.20642 7.6202,1.14433 7.6199,-1.11497 7.6202,0.6533 7.6201,-0.66254 7.6202,0.45942 7.6202,1.02426 7.6199,-1.42006 7.6204,-0.38025 7.6202,0.56187 7.6201,1.32856 7.6199,-0.0358 7.6205,-1.7287 7.6201,0.19812 7.6202,1.07424 7.6202,-0.64242 7.6201,0.33034 7.6199,0.58632 7.6202,-1.78157 7.624,1.31004 7.6199,-0.24613 7.6201,0.70206 7.6202,-0.0697 7.6202,-0.77252 7.6201,0.88484 7.6199,-0.28102 7.6205,-2.37152 7.6201,1.07108 7.6202,2.6625 7.6199,-1.1874 7.6204,-1.70776 7.6202,1.56774 7.6202,-0.11175 7.6199,-1.02203 7.6201,0.0906 7.6202,0.24127 7.6202,0.27588 7.6201,-0.50716 7.6202,0.27051 7.6201,-0.006 7.6202,-0.0222 7.6237,0.5885 7.6202,0.0461 7.6199,-0.38305 7.6202,-0.0428 7.6204,0.86137 7.6202,-1.01298 7.6201,1.0664 7.6202,0.11506 7.6199,-0.37854 7.6202,-1.28278 7.6201,0.7382 7.6202,0.68833 7.6201,-0.78153 7.6202,-0.38582 7.6202,0.57136 7.6201,-1.40336 7.6202,0.89822 7.6204,0.80992 7.6197,-0.44422 7.6204,-0.37547 7.6202,-0.24243 7.6237,0.88208 7.6201,0.0795 7.62,0.51587 7.6201,-0.43455 7.6202,-0.54 7.6201,0.18481 7.6202,0.44662 7.6202,-1.15157 7.6201,-1.48023 7.6202,2.56887 7.6204,0.0503 7.6197,-0.45934 7.6201,0.16476 7.6205,0.60714 7.6201,-1.31928 7.6202,-0.60244 7.6202,1.71212 7.6199,0.10514 7.6204,-1.34635 7.6202,1.08594 7.6199,-0.64057 7.6201,-0.45352 7.6237,-0.99022 7.6202,0.58441 7.6204,2.01518 7.6197,-1.57095 7.6201,0.65684 7.6205,0.29652 7.6201,-1.56617 7.6202,1.26601 7.6202,0.75064 7.6201,-0.73942 7.6202,0.37268 7.6202,1.57596 7.6199,-1.14744 7.6201,-1.08296 7.6202,-0.6281 7.6202,0.18805 7.6201,0.57483 7.6202,1.29181 7.6204,-1.60136 7.6202,0.66211 7.6201,-0.70811 7.6199,-0.20845 7.6238,0.78934 7.6201,-1.47733 7.6202,1.17153 7.6202,-0.79269 7.6199,0.32149 7.6204,1.70158 7.6199,-1.0524 7.6202,0.12133 7.6201,-1.28605 7.6202,2.57266 7.6204,-2.38872 7.6202,1.06004 7.6201,-0.53212 7.6199,-0.31061 7.6202,-0.78858 7.6202,0.34811 7.6201,-0.0869 7.6202,-0.20792 7.6202,1.4906 7.6201,-0.46122 7.6202,0.6727 7.6204,-0.8153 7.6232,0.96999 7.6202,0.0629 7.6201,-1.83252 7.6205,0.40726 7.6201,-0.37677 7.6197,1.68136 7.6204,-1.35875 7.6202,0.92636 7.6201,-0.0492 7.6202,-0.85069 7.6202,0.9399 7.6201,0.0533 7.6202,0.31524 7.6204,-0.64703 7.6197,-1.25065 7.6201,1.74617 7.6202,-0.82224 7.6202,0.40157 7.6201,0.29211 7.6204,0.36273 7.6202,-0.09 7.6202,1.35886 7.6234,-1.39648 7.6202,0.2995 7.6202,-1.76111 7.6204,1.66516 7.6199,-0.78173 7.6202,0.55698 7.6201,-0.4992 7.6202,1.02982 7.6199,-0.25702 7.6202,-0.31181 7.6201,0.36973 7.6204,0.31326 7.6202,-0.77596 7.6204,-0.69715 7.6199,0.84998 7.62,0.40655 7.6201,0.29262 7.6202,-0.25919 7.6201,-0.75486 7.6202,0.0509 7.6202,-0.0675 7.6204,0.083 7.6235,0.18669 7.6201,-0.70654 7.6199,0.59438 7.6204,-0.21281 7.6202,0.37311 7.6202,-0.1923 7.6204,0.11779 7.6197,0.80176 7.6201,-0.41105 7.6202,0.28033 7.6201,-0.80024 7.6205,-0.16804 7.6199,-0.009 7.6201,1.14364 7.6205,-2.09884 7.6201,0.47487 7.6197,0.44756 7.6201,-0.9141 7.6202,1.43678 7.6204,0.24078 7.6202,-0.8868 7.6202,-0.20827 7.6234,0.27948 7.6202,-0.42777 7.6201,0.16097 7.6205,0.082 7.6201,0.16345 7.6202,0.69527 7.6202,0.51254 7.6201,-1.33216 7.6199,0.35295 7.6202,-0.96928 7.6199,1.27677 7.6204,-0.52968 7.6202,0.64854 7.6202,0.82818 7.6204,-2.01867 7.6201,1.51668 7.6199,-1.36668 7.62,1.15805 7.6201,0.93064 7.6202,-1.30599 7.6202,-1.83337 7.6201,1.70845 7.6237,-1.23936 7.6202,0.52476 7.6202,0.0585 7.6201,-0.67546 7.6202,1.5114 7.6202,0.11178 7.6204,-0.95061 7.6201,0.78933 7.6202,0.11906 7.6197,-0.64236 7.6201,0.2394 7.6202,-0.83152 7.6204,1.0989 7.6202,-0.36344 7.6201,-0.40924 7.6202,0.54496 7.6202,1.31704 7.6201,-2.02214 7.6197,0.8892 7.6204,-0.0264 7.6202,0.97537 7.6201,0.019 7.624,-0.61161 7.6197,-0.62899 7.6201,-0.034 7.6202,0.61065 7.6204,-0.75284 7.6202,0.88222 7.6201,-0.7606 7.6202,0.26636 7.6202,0.6238 7.6201,-1.57482 7.6199,0.8142 7.6202,-0.11994 7.6202,-0.15898 7.6201,-1.11897 7.6204,1.93027 7.6202,0.56763 7.6202,-0.54171 7.6201,0.31582 7.62,-0.11021 7.6199,-2.00097 7.6204,1.64302 7.6201,-0.11416 7.6238,-1.75762 7.6201,1.77048 7.6199,-0.28123 7.6202,-0.43331 7.6202,0.45482 7.6201,-0.20394 7.6202,1.26676 7.6204,-0.50978 7.6202,-0.6072 7.6201,0.11538 7.6202,-0.46564 7.6197,0.0237 7.6204,0.0843 7.6201,0.58233 7.6202,0.50859 7.6202,-0.37883 7.6201,1.24305 7.6202,-1.7909 7.6202,0.43097 7.6201,-1.49245 7.6205,0.51438 7.6234,1.71263 7.6202,-0.53317 7.6201,-0.90563 7.6202,0.40651 7.6197,1.04948 7.6204,-0.49758 7.6201,0.73519 7.6202,-2.94483 7.6202,1.6166 7.6201,-1.32676 7.6202,0.3006 7.6202,1.73936 7.6201,-1.58911 7.6199,0.96669 7.6202,-0.11424 7.6202,0.94823 7.6204,-1.20046 7.6202,-0.77006 7.6201,1.73869 7.6202,0.0141 7.6202,-0.71601 7.6201,-0.33078 7.6237,-0.29586 7.6202,0.0321 7.6199,0.75919 7.6202,-0.01 7.6201,-0.90324 7.6199,1.65214 7.6202,-0.888 7.6202,-0.0301 7.6204,0.33883 7.6202,-1.98371 7.6201,1.8488 7.6202,-1.01729 7.6201,0.89563 7.6202,-0.52822 7.6199,0.97585 7.6202,-0.88825 7.6202,-0.20469 7.6201,-0.15259 7.6202,1.21408 7.6201,-1.3231 7.6202,2.63566 7.6204,-2.93274 7.6232,1.98203 7.6205,0.34123 7.6201,-1.9893 7.6202,0.85044 7.6201,-0.0247 7.6202,0.60614 7.6199,0.0877 7.6202,-0.0715 7.6204,-0.32999 7.6202,-0.6133 7.6199,-0.41807 7.6201,-0.12156 7.6202,0.76861 7.6202,-1.04677 7.6204,0.20115 7.6197,1.83885 7.6204,-0.54484 7.6201,0.21547 7.6202,-0.74516 7.6202,1.12427 7.6201,-1.74591 7.6202,0.25844 7.6235,0.24994 7.6204,1.4173 7.6201,-0.47282 7.6202,-2.08122 7.6199,1.31352 7.6202,-0.0675 7.6204,0.44344 7.6199,-0.40974 7.6199,-1.0093 7.6204,0.0189 7.6202,0.46487 7.6202,-0.66404 7.6201,-0.51652 7.6202,1.0885 7.6202,1.2856 7.6201,-0.78697 7.6202,-0.63263 7.6199,0.40868 7.6202,0.5383 7.6201,-0.86525 7.6202,1.38999 7.6202,-1.00002 7.6237,-0.58168 7.6201,0.10728 7.6202,0.62634 7.6202,0.14594 7.6201,-2.0919 7.6202,0.27994 7.6204,0.32213 7.6202,0.5944 7.6196,0.16182 7.6205,-0.22361 7.6201,-0.29091 7.6202,0.38247 7.6199,1.36028 7.6202,-2.33076 7.6204,1.43538 7.6201,0.288 7.6202,-0.93324 7.6199,0.47963 7.6202,0.27559 7.6201,-1.5779 7.6202,0.58299 7.6202,-0.25346 7.6234,0.33734 7.6204,0.63426 7.6202,-0.93367 7.6202,2.10837 7.6201,-1.64723 7.6202,2.14744 7.6202,-1.8999 7.6201,-0.67518 7.6202,1.20844 7.6199,-1.20498 7.6202,0.55961 7.6201,0.68947 7.6202,0.053 7.6202,1.0088 7.6204,0.05 7.6202,-1.63255 7.6199,0.79616 7.6204,-0.59652 7.6201,-0.11204 7.6197,1.62547 7.6202,-2.0134 7.6201,1.96642 7.624,-1.10929 7.6199,-0.61719 7.6202,1.52747 7.6201,-0.34973 7.6202,0.0268 7.6202,0.40374 7.6201,-0.63439 7.6205,0.92116 7.6201,-1.27181 7.6202,0.86178 7.6199,-0.4894 7.6202,0.35414 7.6201,-0.11588 7.6202,0.0858 7.6202,0.66488 7.6201,-0.1059 7.6202,-0.47534 7.6204,-0.34859 7.6202,-1.2567 7.6199,2.35324 7.6199,-1.13666 7.6201,-1.1824 7.624,0.30638 7.6202,0.99648 7.6199,-0.26778 7.6202,-1.24115 7.6201,-0.40426 7.6202,2.61691 7.6202,-0.61048 7.6201,0.11829 7.6202,-0.19977 7.6204,2.19352 7.6202,-0.29854 7.6196,-1.36822 7.6202,0.3447 7.6201,0.88704 7.6202,-0.88674 7.6204,-1.17698 7.6202,1.60635 7.6202,-1.44662 7.6201,0.76498 7.6202,0.77378 7.6202,-1.61676 7.6201,1.43805 7.6232,0.69364 7.6202,-0.74481 7.6204,0.38717 7.6199,-0.33885 7.6202,0.80347 7.6201,-0.493 7.6202,0.72742 7.6204,-0.73678 7.6202,0.77889 7.6202,0.12561 7.6201,0.7867 7.6202,-0.2854 7.6202,1.45349 7.6201,-0.60901 7.6202,-0.50728 7.6204,1.73779 7.6202,1.77043 7.6194,-0.22904 7.6201,-1.94512 7.6202,2.88701 7.6202,0.36104 7.6201,-0.0258 7.624,1.09029 7.6202,1.86666 7.6204,-0.67973 7.6199,1.84078 7.6202,1.11189 7.6201,0.18824 7.6202,0.18844 7.6204,1.67407 7.6202,1.03393 7.6194,1.14104 7.6201,0.82454 7.6202,1.92472 7.6202,1.51095 7.6201,2.18921 7.6202,2.79016 7.6204,0.88216 7.6202,2.70052 7.6201,1.84074 7.6202,3.90234 7.6202,2.38139 7.6201,2.78935 7.6202,1.7668 7.624,4.31775 7.6194,4.48893 7.6204,1.59782 7.6202,3.82703 7.6201,5.69515 7.6199,2.04696 7.6202,4.13305 7.6204,4.10661 7.6202,3.75484 7.6201,6.67428 7.6202,3.0142 7.6202,3.42904 7.6201,2.33406 7.6202,6.56136 7.6202,1.37578 7.6204,3.84204 7.6201,1.37012 7.6202,4.49352 7.6202,1.66057 7.6194,0.81982 7.6201,2.31421 7.6238,-0.84668 7.6204,-0.78499 7.6201,-2.25245 7.6205,-2.30879 7.6201,-3.43539 7.6202,-6.01676 7.6199,-5.4991 7.6202,-9.87639 7.6201,-8.23185 7.6204,-12.54468 7.62021,-13.98038 7.62016,-15.40556 7.61966,-16.42717 7.61991,-18.02749 7.62016,-20.386 7.62017,-24.46074 7.62016,-23.81368 7.62042,-22.58852 7.62017,-24.55358 7.62016,-25.96292 7.62017,-24.33219 7.62016,-24.21185 7.62371,-22.13278 7.62042,-22.07767 7.62017,-17.23031 7.62016,-15.00061 7.61966,-13.57962 7.62016,-6.98049 7.62017,-5.34313 7.62016,-0.91693 7.61991,3.62142 7.62042,5.17694 7.62017,9.9676 7.62016,15.21327 7.62042,14.20081 7.61991,16.30449 7.62016,20.65818 7.62017,21.22441 7.62016,24.304 7.62042,21.84214 7.62017,23.89307 7.62016,22.45227 7.62016,22.90153 7.62017,21.23159 7.62321,20.45557 7.62016,19.18231 7.62017,16.26692 7.62016,14.41984 7.62042,11.77967 7.62016,11.21785 7.62017,8.47669 7.62016,6.36072 7.61991,4.91597 7.62042,4.91708 7.62017,2.5076 7.62016,2.30852 7.62042,-1.72547 7.61991,-0.46553 7.61966,-0.54102 7.61991,-2.22652 7.62016,-3.65031 7.62042,-3.62447 7.62016,-3.83419 7.62017,-3.90873 7.62042,-5.45976 7.61991,-6.03365 7.62397,-1.98039 7.62016,-4.85184 7.62016,-2.29452 7.62017,-5.29378 7.62042,-1.49231 7.62016,-1.16211 7.61941,-1.06282 7.62016,-1.10494 7.62017,0.0189 7.62016,0.9174 7.62016,0.51961 7.62017,1.10775 7.62042,-0.70475 7.62016,1.18245 7.62017,0.56059 7.61991,-2.7535 7.62016,0.31026 7.62042,-0.90201 7.62016,-2.12358 7.62017,-1.09847 7.62042,-1.73373 7.61991,-2.00256 7.6232,-2.87854 7.62017,-0.21 7.62016,-3.86385 7.62017,-0.66553 7.62042,-2.20194 7.62016,-0.77214 7.62017,-1.65114 7.62016,0.0224 7.62016,-2.32884 7.62017,0.46012 7.62016,-0.58878 7.62017,-0.63039 7.62042,0.99495 7.62016,1.36625 7.62017,0.24719 7.61991,-0.17802 7.61965,3.25336 7.62017,-0.64424 7.62016,0.3343 7.62017,0.2601 7.62042,0.24678 7.62016,-1.39156 7.62371,1.06864 7.62017,-3.93334 7.62016,-0.12295 7.62017,0.54385 7.62042,-1.45209 7.62016,-2.48523 7.62016,0.38062 7.62017,0.36708 7.6194,-0.78264 7.62017,-0.5403 7.62016,1.98511 7.62017,0.18191 7.62041,1.93436 7.62017,-0.30619 7.62016,2.75749 7.62017,2.4119 7.62016,2.8475 7.62017,2.15641 7.620162,0.62691 7.620165,2.88054 7.620418,2.72582 7.620164,2.7074 7.622954,1.00863 7.620164,3.7653 7.620165,0.61503 7.620164,1.24296 7.620165,0.0585 7.620418,-0.35388 7.620164,0.59819 7.620165,-0.91228 7.6201645,1.44532 7.6201646,-2.23288 7.6201645,-1.04752 7.6201644,-0.39412 7.620418,-1.37358 7.620165,-2.03292 7.620164,0.13648 7.620165,0.21423 7.620164,-2.30009 7.620165,-0.33342 7.619404,-2.24776 7.620164,-0.97538 7.620418,-1.06864 7.620165,-1.54122 7.623712,-1.62561 7.62017,-1.15975 7.62041,0.6731 7.61992,-3.73133 7.62016,0.18856 7.62042,-2.7159 7.62016,-0.4832 7.62017,-0.74243 7.62016,-1.53988 7.62017,-0.76756 7.6194,-0.97644 7.62016,-1.04866 7.62017,-1.88261 7.62042,-1.93313 7.62016,1.88711 7.62017,-1.81478 7.62016,-0.36421 7.62017,1.0908 7.62016,1.33654 7.62016,-0.11926 7.62017,1.25802 7.62042,-0.64464 7.62371,2.03498 7.62017,0.64939 7.6194,0.74857 7.62042,-0.21474 7.62016,-0.20823 7.62017,-0.61947 7.62016,0.0641 7.62017,1.42798 7.62016,-1.18219 7.62017,0.26633 7.62016,2.1469 7.62016,-1.55272 7.62017,0.22207 7.62042,0.4576 7.62016,-1.00934 7.62017,-0.24813 7.62016,-1.53526 7.62017,0.0688 7.62016,0.0734 7.62016,-0.87984 7.61941,-0.98128 7.62042,-0.6704 7.62371,-1.08002 7.62016,0.92349 7.62017,-1.15318 7.62042,-2.79279 7.62016,-0.0553 7.62017,-0.22533 7.62016,-0.21138 7.62017,-0.56509 7.62016,-0.78904 7.62016,0.97718 7.62017,0.39456 7.62016,-1.10754 7.61941,0.36538 7.62042,0.2467 7.62016,1.45836 7.62016,0.59792 7.62017,-0.82674 7.62016,0.82318 7.62017,0.671 7.62016,0.98309 7.62017,1.59707 7.62042,0.6688 7.62016,0.5013 7.62016,-0.41768 7.62017,1.56228 7.62016,0.22672 7.62017,1.03862 7.62016,1.86191 7.62017,0.66828 7.62042,-0.0215 7.6194,-0.0895 7.62016,1.20607 7.62752,-0.24052 7.62017,0.0672 7.62016,1.08333 7.62016,-0.14904 7.62017,1.04524 7.62016,-0.45141 7.62017,1.97843 7.62042,-1.07751 7.6194,-0.16883 7.62016,2.1388 7.62017,-0.92252 7.62016,0.61502 7.62017,0.57227 7.62016,-0.48218 7.62017,0.67847 7.62042,-0.6936 7.62016,1.85925 7.62016,-2.66724 7.62017,-0.62789 7.62016,1.58724 7.62017,-2.9259 7.62016,1.95585 7.62017,-0.95915 7.62042,-0.26428 7.61991,-0.85526 7.62041,1.18444 7.61941,-2.08484 7.62016,-0.0763 7.62017,1.20723 7.62016,-1.27156 7.62017,-0.32129 7.62041,0.56067 7.61992,1.11841 7.62041,-2.41254 7.62017,-0.34301 7.62016,-0.67249 7.62017,0.84585 7.62016,-0.6188 7.62017,1.37693 7.62016,-0.67539 7.62017,0.35276 7.62041,-1.80623 7.62021,2.0013 7.6201,-2.5932 7.6268,0.20253 7.6201,0.73472 7.6202,0.46515 7.6204,0.58541 7.6199,0.42985 7.6202,-1.35127 7.6202,1.66385 7.6201,-3.60907 7.6204,2.58696 7.6202,-1.1318 7.6197,-0.76924 7.6199,0.69755 7.6201,-0.882 7.6202,-0.87871 7.6202,0.29218 7.6201,0.003 7.6205,0.68176 7.6201,-0.89156 7.6202,0.0797 7.6202,0.70428 7.6201,0.41757 7.6202,-0.45799 7.6201,0.58209 7.6205,0.26626 7.6201,-1.67076 7.6202,1.5697 7.6202,0.54401 7.6201,-0.50849 7.6194,0.21422 7.6202,0.66564 7.6202,0.16309 7.6204,-2.29049 7.6201,1.17094 7.6202,-1.43676 7.6202,1.13535 7.6201,-0.29276 7.6202,0.91843 7.6202,-0.98372 7.6201,-1.20565 7.6204,2.10783 7.62,-1.40379 7.6201,-0.99625 7.6204,0.89803 7.6202,-0.61585 7.6268,2.32924 7.6201,-1.95208 7.6202,0.74774 7.6204,-1.07237 7.6202,0.94119 7.6201,0.25421 7.6199,0.26407 7.6202,0.8028 7.6204,0.19039 7.6202,-0.90777 7.6202,-1.73503 7.6201,1.54081 7.6197,0.66058 7.6199,0.0619 7.6202,-0.0979 7.6201,-0.24954 7.6204,1.91038 7.6202,-1.26696 7.6202,-1.16338 7.6201,1.23806 7.6202,1.04824 7.6202,-1.03566 7.6201,-1.0941 7.6202,2.28597 7.6204,-1.11178 7.6202,-0.0215 7.6201,-0.12126 7.6202,-0.5898 7.6202,1.97324 7.6201,0.0285 7.6194,-1.06637 7.6202,0.22982 7.6204,-0.27905 7.6202,-0.35199 7.6201,0.57818 7.6202,-1.63393 7.6202,0.78888 7.6201,-0.73529 7.6202,0.82988 7.6202,1.48004 7.6204,-1.45398 7.6201,-0.14416 7.6202,-1.38616 7.6202,1.02682 7.6267,1.45164 7.6202,-1.91358 7.6202,0.71572 7.6204,-0.0248 7.6201,-0.72774 7.6202,-0.14944 7.6202,-0.12357 7.6201,0.003 7.6202,1.13542 7.6202,-0.98918 7.6201,0.50108 7.6205,-1.35866 7.6201,0.27895 7.6199,0.49853 7.6197,-0.378 7.6201,0.22637 7.6202,0.87045 7.6202,-0.56747 7.6201,0.0834 7.6205,-0.079 7.6201,0.34212 7.6199,-0.39717 7.6205,-0.56617 7.6201,0.57137 7.6202,0.72596 7.6201,-0.99052 7.6202,1.1869 7.6202,0.32211 7.6201,0.64986 7.6205,-0.93087 7.6201,-0.65938 7.6202,0.12785 7.6194,1.42936 7.6202,-1.83132 7.6201,-0.44179 7.6202,0.9303 7.6202,1.00942 7.6204,-0.13843 7.6201,-0.22901 7.6202,-1.48476 7.6202,-0.44279 7.6201,1.82843 7.6202,-1.10534 7.6202,1.70861 7.6267,-1.38411 7.6202,0.67163 7.6201,0.80202 7.6202,-0.084 7.6204,-1.14681 7.6202,-0.14547 7.6202,0.16996 7.6201,0.94554 7.6202,-1.17678 7.6201,1.46533 7.6202,-0.62254 7.6202,-0.93709 7.6204,1.21554 7.6202,-1.78541 7.6201,1.08171 7.6202,0.10337 7.6194,0.66407 7.6202,-1.89671 7.6201,1.47644 7.6202,0.35803 7.6204,-0.31533 7.6202,-0.82788 7.6201,-0.54103 7.6202,2.78751 7.6202,-1.6722 7.6201,-0.77736 7.6202,0.56814 7.6204,-0.40688 7.6202,0.71108 7.6199,1.29012 7.6204,-0.59144 7.6202,-0.381 7.6201,-0.0259 7.6202,-0.31169 7.6194,1.69621 7.6204,-1.69822 7.6202,1.13548 7.6199,-2.77596 7.6204,0.96453 7.6202,0.54977 7.6201,-1.26811 7.6202,1.50973 7.6202,-0.7272 7.6277,0.73126 7.6194,0.44029 7.6202,-0.90383 7.6202,1.85138 7.6199,-2.70262 7.6204,0.58482 7.6202,0.65394 7.6201,-0.18409 7.6205,-0.19775 7.6199,-0.8899 7.6201,1.07006 7.6202,1.36415 7.6202,-1.97986 7.6204,0.92481 7.6201,-0.92628 7.6202,0.52035 7.6202,0.47493 7.6201,-1.45772 7.6202,1.9995 7.6194,-0.48609 7.6202,0.0918 7.6204,-1.23346 7.6201,0.10837 7.6202,0.0621 7.6202,1.10339 7.6201,-0.11369 7.6202,-0.44055 7.6202,-0.066 7.6201,0.11055 7.6205,-0.81138 7.6201,1.10646 7.6202,1.04076 7.6201,-0.62126 7.6202,-1.56315 7.6202,-0.26851 7.6201,0.50791 7.6205,-0.0445 7.6194,1.51929 7.6201,-1.62252 7.6202,0.50476 7.6202,0.86099 7.6201,-1.4524 7.6202,0.44167 7.6201,0.19951 7.6278,0.15055 7.6202,-0.88324 7.6201,1.47479 7.6195,-1.22682 7.6201,0.90049 7.6202,-1.23185 7.6201,3.33817 7.6202,-2.23387 7.6204,0.29182 7.6202,-1.59074 7.6202,1.68448 7.6199,-1.24383 7.6201,0.17405 7.6205,0.068 7.6201,0.82568 7.6202,-0.85191 7.6204,0.7652 7.6199,0.64774 7.6202,-2.28717 7.6201,1.54049 7.6202,-0.40405 7.6197,-0.33796 7.6201,0.17377 7.6202,0.56643 7.6204,-0.23676 7.6199,1.0258 7.6202,-0.97687 7.6201,0.0379 7.6202,-0.18657 7.6204,-0.24105 7.6202,0.71532 7.6202,-1.76166 7.6201,1.79793 7.6202,0.32223 7.6202,-1.59563 7.6201,2.6354 7.6202,-2.43603 7.6204,-0.60753 7.6202,2.0247 7.6201,0.0955 7.6194,0.0702 7.6202,-0.71244 7.6202,1.77799 7.6201,-2.56991 7.6275,-0.32834 7.6205,0.43469 7.6201,1.28217 7.6202,-1.20905 7.6202,1.91864 7.6194,-2.11336 7.6201,1.02167 7.6202,-0.53292 7.6202,0.8636 7.6204,0.44273 7.6201,-1.27815 7.6202,-0.0637 7.6202,0.16216 7.6199,-1.1928 7.6204,1.5811 7.6202,-1.53564 7.6204,0.72241 7.6201,1.09053 7.6202,-0.0795 7.6199,0.65556 7.6202,-2.40595 7.6201,0.62923 7.6205,1.10104 7.6194,-0.44164 7.6204,-0.0271 7.6202,0.54809 7.6201,-0.33986 7.6199,-0.5779 7.6202,0.94454 7.6202,-1.1631 7.6204,-0.26571 7.6201,-0.97262 7.6202,1.67967 7.6202,0.30218 7.6201,-1.28314 7.6202,1.76357 7.6202,-0.59607 7.6204,1.06759 7.6201,0.33146 7.6202,-1.26751 7.6202,-0.16578 7.6201,-0.73346 7.6194,0.64854 7.6202,-1.11877 7.6275,0.1654 7.6204,-0.39748 7.6202,2.28516 7.6202,-2.23781 7.6201,2.13299 7.6202,-0.005 7.6202,-2.09193 7.6194,1.46685 7.6201,1.18516 7.6204,-2.5436 7.6202,2.24964 7.6202,-2.22176 7.6201,-0.006 7.6202,1.44136 7.6202,-0.45166 7.6201,0.31618 7.6202,0.87114 7.6204,-1.72288 7.6202,1.81832 7.6201,-1.59306 7.6202,0.19397 7.6199,0.56738 7.6204,-0.3622 7.6202,-0.51685 7.6202,0.96356 7.6196,-0.2653 7.6202,-0.0659 7.6202,1.15427 7.6201,-1.28265 7.6199,0.20872 7.6205,0.57074 7.6201,0.46014 7.6202,-0.76015 7.6204,-0.72327 7.6199,0.25086 7.6202,0.92303 7.6201,-1.25708 7.6202,0.5236 7.6204,-0.92928 7.6202,1.47351 7.6201,-0.35923 7.6202,-0.86055 7.6202,-0.61176 7.6201,1.31431 7.6268,0.39742 7.6202,-1.19041 7.6204,1.62663 7.6201,-0.48417 7.6202,-2.05711 7.6202,2.52783 7.6201,-1.63133 7.6202,1.9127 7.6202,-1.73114 7.6194,0.41691 7.6204,0.71124 7.6202,-0.25174 7.6201,0.0441 7.6202,-0.19836 7.6202,0.10201 7.6201,0.16249 7.6202,-1.67769 7.6204,1.71521 7.6202,-2.61161 7.6201,1.29124 7.6202,0.6275 7.6202,-0.0228 7.6201,0.42635 7.6202,-0.16962 7.6201,-0.0163 7.6205,-0.81704 7.6201,0.93839 7.6194,-0.43658 7.6202,-0.0902 7.6202,0.36585 7.6201,0.18444 7.6202,-0.68322 7.6202,0.73061 7.6204,0.21006 7.6201,-0.95864 7.6202,1.53385 7.6199,-0.7288 7.6202,0.17756 7.6204,-0.33156 7.6202,-0.6054 7.6201,-0.0809 7.6204,0.3693 7.62,1.15256 7.6201,-0.66314 7.627,-0.18012 7.6202,-0.58907 7.6202,0.49237 7.6201,0.39881 7.6202,-1 7.6202,1.07914 7.6201,0.28967 7.6204,-1.4927 7.6199,0.83997 7.6202,-1.34533 7.6204,0.97208 7.6194,-0.39164 7.6202,1.0881 7.6202,-0.25772 7.6201,-0.69578 7.6204,0.60924 7.62,1.0637 7.6201,-1.68862 7.6204,0.4187 7.6202,0.0837 7.6202,0.2266 7.6201,0.8727 7.6202,-0.67096 7.6202,-2.26096 7.6201,2.37465 7.6202,-1.96137 7.6204,0.80923 7.6202,1.59546 7.6201,-1.47727 7.6194,0.77707 7.62,0.55927 7.6204,-1.39148 7.6204,0.0849 7.6204,-0.0978 7.6202,0.1581 7.6194,0.64154 7.6201,0.41024 7.6207,-2.08476 7.6202,2.44009 7.6204,0.14211 7.6204,-1.21102 7.6192,-0.83836 7.6204,0.56688 7.6275,0.29575 7.6194,0.79191 7.6202,-1.0452 7.6204,-0.0577 7.6204,-0.15393 7.6204,-0.44155 7.6204,1.69487 7.6205,-0.32123 7.6191,-0.4812 7.6204,-0.59833 7.6204,1.58488 7.6202,-1.51495 7.6207,1.94866 7.6201,-1.01143 7.6194,0.0205 7.6202,-1.21576 7.6194,1.75242 7.6202,-1.31476 7.6204,-0.45524 7.6204,1.31897 7.6204,-1.33195 7.6202,-0.4692 7.6194,1.43496 7.6202,0.0664 7.6206,1.32562 7.6202,-1.21879 7.6194,0.20181 7.6214,-1.37543 7.6192,1.33171 7.6204,0.54198 7.6204,-1.97998 7.6204,1.28486 7.6192,-0.32457 7.6217,-1.16361 7.6191,2.20884 7.6205,-0.56616 7.6201,0.29712 7.6207,-1.51813 7.6189,2.16813 7.6217,-1.32934 7.6191,-0.33666 7.6204,0.002 7.6205,0.6576 7.6191,0.1546 7.6278,-0.49878 7.6201,0.80847 7.6205,-0.52722 7.6191,-0.46317 7.6217,2.65988 7.6191,-3.13108 7.6205,0.28567 7.6204,0.64168 7.6191,1.4766 7.6205,-1.49449 7.6204,1.25674 7.6204,-0.68622 7.6191,-0.6215 7.6217,-1.32617 7.6189,0.99573 7.6207,0.33437 7.6202,-0.21009 7.6204,0.36062 7.6191,0.55467 7.6217,-0.94135 7.6192,0.26351 7.6204,-0.48169 7.6204,0.50448 7.6204,0.66459 7.6192,0.50401 7.6204,-0.51235 7.6204,-0.93337 7.6192,0.974 7.6214,-0.81492 7.6191,-1.35834 7.6205,0.44328 7.6204,-0.29968 7.6204,-0.0852 7.6191,2.07904 7.6217,-0.24278 7.6192,-1.46515 7.6204,2.4158 7.6202,-2.03203 7.6206,-0.21309 7.6189,1.00392 7.6217,-0.0312 7.6192,0.60291 7.6204,-1.25472 7.6204,0.91317 7.6262,-1.31098 7.6207,1.28219 7.6202,-0.52564 7.6204,-1.15588 7.6192,1.1145 7.6216,-0.0269 7.6192,-0.38359 7.6204,1.51627 7.6204,-1.87612 7.6192,-0.48234 7.6204,0.54434 7.6204,0.27667 7.6204,0.0423 7.6192,-1.3126 7.6217,0.59838 7.6189,1.71624 7.6206,-1.25106 7.6202,-0.14218 7.6204,0.81045 7.6192,-1.65039 7.6217,1.54822 7.6191,-0.61957 7.6204,0.30491 7.6204,-1.09255 7.6205,0.88678 7.6191,0.23371 7.6214,0.7554 7.6194,-1.66902 7.6192,2.12665 7.6217,-0.69147 7.6189,-0.83398 7.6206,0.18705 7.6202,0.43733 7.6204,-1.36328 7.6192,2.48312 7.6217,-1.85464 7.6191,0.5623 7.6204,0.61255 7.6202,0.52405 7.6207,-2.45923 7.6189,2.0308 7.6217,0.18107 7.6191,-0.77508 7.6204,0.28633 7.6278,-0.27413 7.6191,-0.65196 7.6205,1.24882 7.6204,0.97085 7.6201,-1.21795 7.6194,-0.56967 7.6215,1.01803 7.6194,0.31578 7.6214,-1.08298 7.6192,0.27922 7.6204,-0.65716 7.6191,0.27124 7.6205,-0.3759 7.6204,0.31773 7.6191,1.57326 7.6217,-1.22517 7.6189,0.37504 7.6207,-1.43096 7.6201,1.19143 7.6205,0.58897 7.6191,-0.31156 7.6217,-0.21344 7.6191,-0.15048 7.6205,1.56527 7.6204,-2.21667 7.6204,0.36983 7.6192,-0.84367 7.6214,0.89264 7.6194,0.42995 7.6191,0.77561 7.6217,-2.56221 7.6189,0.53323 7.6207,1.02824 7.6202,0.25588 7.6204,0.0587 7.6191,-0.38853 7.6217,1.75908 7.6192,-2.50895 7.6204,1.59291 7.6204,-2.12752 7.6204,-0.0206 7.6192,2.08267 7.6214,-0.2027 7.6194,-0.4783 7.6263,-0.90195 7.6216,0.50118 7.6192,-0.79501 7.6204,0.79548 7.6204,0.75024 7.6202,-0.87197 7.6194,0.37966 7.6214,-0.32601 7.6194,0.9316 7.6215,0.28098 7.6191,0.38998 7.6204,-1.56663 7.6192,-0.0867 7.6204,0.45838 7.6204,-0.66985 7.6192,1.25549 7.6217,0.81519 7.6191,-0.86303 7.6204,0.13476 7.6204,-1.10062 7.6202,-0.70048 7.6194,1.93505 7.6214,-1.18009 7.6192,1.42138 7.6204,-1.38989 7.6204,0.12262 7.6205,0.3479 7.619,-0.57243 7.6216,0.41748 7.6193,-0.1971 7.6216,0.18064 7.6192,0.33975 7.6191,-0.64687 7.6205,0.31376 7.6203,0.77081 7.6203,-0.44234 7.6193,-0.23303 7.6216,0.56778 7.6192,-1.01942 7.6203,1.00193 7.6203,0.42926 7.6206,-1.7016 7.619,-0.11399 7.6278,0.84554 7.6203,-1.72836 7.6192,1.31486 7.6216,0.42308 7.6191,-0.43235 7.6215,-0.2344 7.6193,0.42196 7.6203,1.14013 7.6193,0.14154 7.6215,-0.583 7.6193,-1.3654 7.6216,0.4172 7.6191,-0.26852 7.6204,0.18052 7.6191,-0.33618 7.6216,0.3337 7.6193,1.32394 7.6192,-0.47294 7.6216,-0.23843 7.619,0.0812 7.6206,-2.309 7.6203,3.97064 7.6203,-2.49392 7.6192,0.51893 7.6216,-0.0374 7.6193,0.095 7.6216,-0.56429 7.619,0.57348 7.6205,-0.46726 7.6191,0.52763 7.6216,1.25875 7.6192,-1.08897 7.6216,-0.36585 7.6193,-0.54457 7.6203,1.64011 7.6192,-0.36914 7.6204,-1.88388 7.6203,1.32161 7.6192,-0.0121 7.6216,0.10854 7.6192,-0.32864 7.6204,0.22178 7.6203,0.70578 7.6205,-1.66549 7.6263,0.59355 7.6205,0.48154 7.6203,0.15161 7.6193,-0.23217 7.6216,0.485 7.619,-0.009 7.6216,-1.68558 7.6193,0.48531 7.6203,1.46185 7.6192,-2.19622 7.6216,0.89029 7.6193,0.15169 7.6215,1.2463 7.6191,-1.75307 7.6205,0.73694 7.6191,1.26711 7.6216,-1.86389 7.6192,-0.33683 7.6193,0.85463 7.6215,0.96124 7.6191,-1.06527 7.6216,0.68612 7.6192,0.14673 7.6204,-0.80442 7.6192,0.75319 7.6216,0.06 7.6193,-1.04221 7.6215,0.37024 7.6191,0.48661 7.6205,-1.11029 7.6191,1.73963 7.6216,-0.45089 7.6192,1.04321 7.6216,-1.26786 7.6192,-0.97486 7.6203,1.49085 7.6193,-1.08897 7.6203,0.65594 7.6204,-1.07759 7.6192,0.60123 7.6216,0.92786 7.6192,-1.48761 7.6216,0.17929 7.6191,0.94974 7.6277,-0.87004 7.6203,0.0384 7.6193,0.008 7.6203,0.0742 7.6192,1.7682 7.6216,-1.39961 7.6191,-1.00649 7.6216,0.43512 7.6192,-0.54747 7.6203,-0.53033 7.6193,1.38269 7.6216,0.21851 7.6192,-1.21792 7.6216,0.88552 7.6191,0.73303 7.6205,-0.44197 7.619,-0.13144 7.6216,0.75466 7.6193,-0.61173 7.6216,0.67212 7.6192,-0.89527 7.6191,-0.59238 7.6216,0.44409 7.6192,0.90531 7.6203,-1.08583 7.6193,0.0285 7.6216,1.15698 7.6192,-1.12069 7.6216,1.94709 7.6191,-2.29969 7.6205,0.42926 7.619,1.49874 7.6216,-0.59879 7.6193,0.32194 7.6215,-0.50226 7.6193,-1.73322 7.6203,0.632 7.6193,-0.2064 7.6215,-0.31539 7.6191,1.05929 7.6192,-0.0639 7.6216,0.25029 7.6193,-2.02877 7.6216,1.71716 7.6263,0.72032 7.6205,0.43372 7.6203,-1.27 7.6203,0.3858 7.6192,-0.0229 7.6193,-1.08787 7.6216,0.87652 7.6191,-1.06346 7.6215,1.37623 7.6193,0.84723 7.6203,-0.34894 7.6193,-0.80489 7.6215,-1.00519 7.6193,0.21047 7.6216,0.95605 7.619,0.72217 7.6206,-0.12878 7.6203,-1.22203 7.6203,1.33346 7.6192,-0.49374 7.6216,0.2579 7.6193,-0.18836 7.619,-0.84381 7.6216,1.6545 7.6193,-0.0139 7.6203,-2.44315 7.6192,0.7748 7.6216,-0.29118 7.6193,1.6075 7.6215,0.0521 7.6191,-1.272 7.6205,0.45559 7.6191,-0.0909 7.6216,-0.71535 7.6192,0.93493 7.6216,-1.04632 7.6193,0.55763 7.6203,0.11514 7.6203,0.0178 7.6205,0.87856 7.6191,-1.67816 7.6192,0.44564 7.6216,0.24332 7.6193,1.02826 7.6288,0.67766 7.619,-0.96548 7.6205,-0.58578 7.6203,0.60409 7.6204,0.40703 7.6192,-1.47472 7.6193,-0.95886 7.6216,0.6061 7.619,1.15202 7.6216,-0.83767 7.6192,0.71145 7.6204,-0.91913 7.6205,1.5494 7.6203,-0.90923 7.6192,-0.33465 7.6216,0.44395 7.6191,1.23515 7.6205,-1.97048 7.6203,1.20573 7.6204,0.26862 7.6192,-0.39448 7.6216,0.31834 7.6192,-0.56252 7.6204,-0.8034 7.6203,0.14221 7.6192,0.22473 7.6204,0.58238 7.6192,0.0204 7.6216,-0.0571 7.6192,-1.43644 7.6216,0.34961 7.6191,2.38069 7.6205,-0.83219 7.6203,-0.22577 7.6203,-0.88621 7.6193,0.3361 7.6216,0.63967 7.6192,0.0609 7.6203,0.26896 7.6204,-0.49376 7.6205,-1.30825 7.619,0.13633 7.6217,0.9665 7.6264,-0.50519 7.6192,-0.0423 7.6216,1.28797 7.6191,0.0277 7.6204,0.18264 7.6204,-1.40365 7.6204,0.8183 7.6192,-0.68493 7.6216,-0.8714 7.6192,0.44498 7.6191,1.19344 7.6216,0.80485 7.6192,-1.77989 7.6204,0.34544 7.6204,0.20596 7.6204,-0.67039 7.6192,0.57111 7.6215,-0.62696 7.6192,0.17776 7.6204,1.23738 7.6204,0.32042 7.6204,0.0239 7.6192,-1.88591 7.6216,0.99343 7.6191,-0.34324 7.6204,0.69381 7.6204,-0.97205 7.6204,0.25777 7.6192,0.11328 7.6192,-0.13462 7.6215,0.81297 7.6192,-1.41032 7.6216,1.11839 7.6192,-1.44902 7.6204,0.76506 7.6204,0.57196 7.6204,-0.63306 7.6191,0.7654 7.6216,0.1117 7.6192,-1.30933 7.6204,1.3208 7.6204,-0.83974 7.6204,-0.36139 7.6191,1.72209 7.6277,-0.46763 7.6204,-1.60061 7.6191,1.20412 7.6216,0.14783 7.6192,0.12691 7.6204,-0.63657 7.6204,1.27345 7.6203,-0.37595 7.6193,-2.52904 7.6215,1.05917 7.6192,1.09587 7.6192,0.30138 7.6216,-0.2364 7.6192,-0.37866 7.6204,0.0263 7.6204,0.54021 7.6203,-0.0763 7.6192,0.58488 7.6216,-0.81112 7.6192,-1.05687 7.6204,1.48645 7.6204,-0.3478 7.6203,0.43903 7.6192,-1.13926 7.6216,0.41961 7.6192,-0.67738 7.6204,1.76017 2.757,-0.61697"
         style="fill:url(#pattern5);fill-opacity:1;stroke:#004e8a;stroke-width:16.8557;stroke-linecap:butt;stroke-linejoin:round;stroke-miterlimit:10;stroke-dasharray:none;stroke-opacity:1"
         clip-path="url(#clipPath3)"
         transform="matrix(0.67268346,0,0,0.67268346,105.09922,149.32303)" /><g
         id="g6"
         transform="translate(0,-2.8405996)"><path
           style="fill:none;stroke:#000000;stroke-width:2.92978;stroke-miterlimit:3.8;stroke-dasharray:none;stroke-opacity:1;marker-end:url(#ArrowWide);paint-order:stroke fill markers"
           d="m -788.31049,489.25006 c 63.11304,0 126.22608,0 189.33912,0"
           id="path5"
           transform="matrix(3.8701084,0,0,3.8701084,2229.7162,-1369.5278)"
           inkscape:original-d="m -788.31049,489.25006 c 63.11304,0 126.22608,0 189.33912,0"
           inkscape:path-effect="#path-effect5" /><path
           style="fill:none;stroke:#000000;stroke-width:10.2515;stroke-miterlimit:3.8;stroke-dasharray:none;stroke-opacity:1;marker-end:url(#marker7);paint-order:stroke fill markers"
           d="m -470.36301,522.6441 c 0,-72.37643 0,-144.75287 0,-217.1293"
           id="path6"
           transform="matrix(1.1060458,0,0,1.1060458,49.880028,-55.424219)"
           inkscape:original-d="m -470.36301,522.6441 c 0,-72.37643 0,-144.75287 0,-217.1293"
           inkscape:path-effect="#path-effect6" /><text
           xml:space="preserve"
           style="font-style:normal;font-variant:normal;font-weight:bold;font-stretch:normal;font-size:85.3333px;line-height:0;font-family:Charter;-inkscape-font-specification:'Charter, Bold';font-variant-ligatures:normal;font-variant-caps:normal;font-variant-numeric:normal;font-variant-east-asian:normal;fill:#000000;fill-opacity:1;stroke:none;stroke-width:11.3386;stroke-miterlimit:3.8;stroke-dasharray:none;stroke-opacity:1;paint-order:stroke fill markers"
           x="-79.640709"
           y="548.29797"
           id="text7"><tspan
             sodipodi:role="line"
             id="tspan7"
             x="-79.640709"
             y="548.29797">t</tspan></text><text
           xml:space="preserve"
           style="font-style:normal;font-variant:normal;font-weight:bold;font-stretch:normal;font-size:85.3333px;line-height:0;font-family:Charter;-inkscape-font-specification:'Charter, Bold';font-variant-ligatures:normal;font-variant-caps:normal;font-variant-numeric:normal;font-variant-east-asian:normal;fill:#b40f00;fill-opacity:1;stroke:none;stroke-width:11.3386;stroke-miterlimit:3.8;stroke-dasharray:none;stroke-opacity:1;paint-order:stroke fill markers"
           x="-443.83673"
           y="600.6499"
           id="text7-3-5"><tspan
             sodipodi:role="line"
             id="tspan7-4-6"
             x="-443.83673"
             y="600.6499">t<tspan
   style="font-size:65%;baseline-shift:sub"
   id="tspan9">1</tspan></tspan></text><text
           xml:space="preserve"
           style="font-style:normal;font-variant:normal;font-weight:bold;font-stretch:normal;font-size:85.3333px;line-height:0;font-family:Charter;-inkscape-font-specification:'Charter, Bold';font-variant-ligatures:normal;font-variant-caps:normal;font-variant-numeric:normal;font-variant-east-asian:normal;fill:#b40f00;fill-opacity:1;stroke:none;stroke-width:11.3386;stroke-miterlimit:3.8;stroke-dasharray:none;stroke-opacity:1;paint-order:stroke fill markers"
           x="-209.35704"
           y="600.6499"
           id="text7-3-5-7"><tspan
             sodipodi:role="line"
             id="tspan7-4-6-9"
             x="-209.35704"
             y="600.6499">t<tspan
   style="font-size:65%;baseline-shift:sub"
   id="tspan10">n</tspan></tspan></text><text
           xml:space="preserve"
           style="font-style:normal;font-variant:normal;font-weight:bold;font-stretch:normal;font-size:85.3333px;line-height:0;font-family:Charter;-inkscape-font-specification:'Charter, Bold';font-variant-ligatures:normal;font-variant-caps:normal;font-variant-numeric:normal;font-variant-east-asian:normal;fill:#000000;fill-opacity:1;stroke:none;stroke-width:11.3386;stroke-miterlimit:3.8;stroke-dasharray:none;stroke-opacity:1;paint-order:stroke fill markers"
           x="-606.67548"
           y="270.88687"
           id="text7-1"><tspan
             sodipodi:role="line"
             id="tspan7-2"
             x="-606.67548"
             y="270.88687">E-Field</tspan></text><text
           xml:space="preserve"
           style="font-style:normal;font-variant:normal;font-weight:bold;font-stretch:normal;font-size:85.3333px;line-height:0;font-family:Charter;-inkscape-font-specification:'Charter, Bold';font-variant-ligatures:normal;font-variant-caps:normal;font-variant-numeric:normal;font-variant-east-asian:normal;fill:#004e8a;fill-opacity:1;stroke:none;stroke-width:11.3386;stroke-miterlimit:3.8;stroke-dasharray:none;stroke-opacity:1;paint-order:stroke fill markers"
           x="-375.27631"
           y="370.14883"
           id="text11"><tspan
             sodipodi:role="line"
             id="tspan11"
             x="-375.27631"
             y="370.14883">THz signal</tspan></text><text
           xml:space="preserve"
           style="font-style:normal;font-variant:normal;font-weight:bold;font-stretch:normal;font-size:85.3333px;line-height:0;font-family:Charter;-inkscape-font-specification:'Charter, Bold';font-variant-ligatures:normal;font-variant-caps:normal;font-variant-numeric:normal;font-variant-east-asian:normal;fill:#b40f00;fill-opacity:1;stroke:none;stroke-width:11.3386;stroke-miterlimit:3.8;stroke-dasharray:none;stroke-opacity:1;paint-order:stroke fill markers"
           x="-375.85965"
           y="461.69046"
           id="text12"><tspan
             sodipodi:role="line"
             id="tspan12"
             x="-375.85965"
             y="461.69046">probing pulses</tspan></text></g></g></g></svg>
